<svg xmlns="http://www.w3.org/2000/svg" xmlns:xlink="http://www.w3.org/1999/xlink" fill="none" version="1.1" width="36" height="36" viewBox="0 0 36 36"><defs><clipPath id="master_svg0_116_7749"><rect x="0" y="0" width="36" height="36" rx="0"/></clipPath></defs><g style="mix-blend-mode:passthrough" clip-path="url(#master_svg0_116_7749)"><g><g><path d="M4,6.5C4,5.671573,4.671573,5,5.5,5L14.5,5L18.25,9.5L31,9.5C31.8284,9.5,32.5,10.17155,32.5,11L32.5,30.5C32.5,31.3284,31.8284,32,31,32L5.5,32C4.671573,32,4,31.3284,4,30.5L4,6.5Z" fill="#3662EC" fill-opacity="1"/><path d="M3.5,30.5L3.5,6.5Q3.5,4.5,5.5,4.5L14.5,4.5Q14.6113,4.5,14.7121,4.547205Q14.8129,4.594411,14.8841,4.679908L18.6341,9.17991L18.25,9.5L18.25,9L31,9Q33,9,33,11L33,30.5Q33,32.5,31,32.5L5.5,32.5Q3.5,32.5,3.5,30.5L3.5,30.5ZM4.5,30.5Q4.5,30.9142,4.792891,31.2071Q5.08578,31.5,5.5,31.5L31,31.5Q32,31.5,32,30.5L32,11Q32,10,31,10L18.25,10Q18.1387,10,18.0379,9.9528Q17.9371,9.90559,17.8659,9.82009L14.1159,5.320092L14.5,5L14.5,5.5L5.5,5.5Q4.5,5.5,4.5,6.5L4.5,30.5L4.5,30.5Z" fill="#333333" fill-opacity="1"/></g><g><path d="M13.396447,19.64645L17.89645,15.146447Q17.93124,15.111649,17.97216,15.084304Q18.01307,15.056958,18.05853,15.038113Q18.10399,15.019269,18.152250000000002,15.009648Q18.20051,15.000027,18.24972,15Q18.29893,14.999973,18.3472,15.00954Q18.39548,15.019107,18.44096,15.037901Q18.48644,15.056695,18.52738,15.083996Q18.56833,15.111296,18.60316,15.146055L23.103160000000003,19.63608Q23.138019999999997,19.67086,23.16543,19.71178Q23.19283,19.75269,23.21173,19.79817Q23.230620000000002,19.84365,23.24028,19.891939999999998Q23.249940000000002,19.94022,23.25,19.98947Q23.25005,20.038719999999998,23.2405,20.08703Q23.23095,20.13534,23.21215,20.18085Q23.19336,20.22637,23.166040000000002,20.26735Q23.138730000000002,20.308320000000002,23.103949999999998,20.34319Q23.06916,20.37805,23.02824,20.405450000000002Q22.98733,20.432859999999998,22.941850000000002,20.45175Q22.89638,20.47065,22.84809,20.48031Q22.799799999999998,20.48997,22.75055,20.49002Q22.70131,20.49008,22.653,20.48053Q22.604689999999998,20.47097,22.55917,20.45218Q22.51365,20.43338,22.47268,20.40607Q22.4317,20.37875,22.396839999999997,20.34397L17.89684,15.853945L18.25,15.5L18.60355,15.853553L14.103553,20.35355Q14.068731,20.388370000000002,14.027785,20.41573Q13.986839,20.443089999999998,13.941342,20.46194Q13.895845,20.48078,13.8475451,20.490389999999998Q13.7992457,20.5,13.75,20.5Q13.7007543,20.5,13.6524549,20.490389999999998Q13.604155,20.48078,13.558658,20.46194Q13.513161,20.443089999999998,13.472215,20.41573Q13.431269,20.388370000000002,13.396447,20.35355Q13.361625,20.318730000000002,13.334265,20.27778Q13.306906,20.23684,13.28806,20.19134Q13.269214999999999,20.14584,13.259607,20.097540000000002Q13.25,20.04924,13.25,20Q13.25,19.95075,13.259607,19.90245Q13.269214999999999,19.85415,13.28806,19.80866Q13.306906,19.76316,13.334265,19.72221Q13.361625,19.681269999999998,13.396447,19.64645ZM14.25,20Q14.25,20.04925,14.240393,20.09755Q14.230785000000001,20.14584,14.21194,20.19134Q14.193094,20.23684,14.165735,20.27778Q14.138375,20.318730000000002,14.103553,20.35355Q14.068731,20.388370000000002,14.027785,20.41573Q13.986839,20.443089999999998,13.941342,20.46194Q13.895845,20.48078,13.8475451,20.490389999999998Q13.7992457,20.5,13.75,20.5Q13.7007543,20.5,13.6524549,20.490389999999998Q13.604155,20.48078,13.558658,20.46194Q13.513161,20.443089999999998,13.472215,20.41573Q13.431269,20.388370000000002,13.396447,20.35355Q13.361625,20.318730000000002,13.334265,20.27778Q13.306906,20.23684,13.28806,20.19134Q13.269214999999999,20.14584,13.259607,20.09755Q13.25,20.04925,13.25,20Q13.25,19.95075,13.259607,19.90245Q13.269214999999999,19.85415,13.28806,19.80866Q13.306906,19.76316,13.334265,19.72221Q13.361625,19.681269999999998,13.396447,19.64645Q13.431269,19.611620000000002,13.472215,19.58426Q13.513161,19.556910000000002,13.558658,19.53806Q13.604155,19.51921,13.6524549,19.509610000000002Q13.7007543,19.5,13.75,19.5Q13.7992457,19.5,13.8475451,19.509610000000002Q13.895845,19.51921,13.941342,19.53806Q13.986839,19.556910000000002,14.027785,19.58426Q14.068731,19.611620000000002,14.103553,19.64645Q14.138375,19.681269999999998,14.165735,19.72221Q14.193094,19.76316,14.21194,19.80866Q14.230785000000001,19.85415,14.240393,19.90245Q14.25,19.95075,14.25,20ZM23.25,19.99003Q23.25,20.039270000000002,23.240389999999998,20.08757Q23.23078,20.13587,23.21194,20.18137Q23.193089999999998,20.226860000000002,23.16573,20.26781Q23.138370000000002,20.30876,23.10355,20.34358Q23.068730000000002,20.3784,23.02778,20.40576Q22.98684,20.43312,22.94134,20.45196Q22.89584,20.47081,22.847540000000002,20.48042Q22.799239999999998,20.49002,22.75,20.49003Q22.70075,20.49002,22.65245,20.48042Q22.60415,20.47081,22.55866,20.45196Q22.51316,20.43312,22.47221,20.40576Q22.431269999999998,20.3784,22.39645,20.34358Q22.361620000000002,20.30876,22.33426,20.26781Q22.3069,20.226860000000002,22.28806,20.18137Q22.26921,20.13587,22.259610000000002,20.08757Q22.25,20.039270000000002,22.25,19.99003Q22.25,19.94078,22.259610000000002,19.89248Q22.26921,19.84418,22.28806,19.79868Q22.3069,19.75319,22.33426,19.71224Q22.361620000000002,19.67129,22.39645,19.63647Q22.431269999999998,19.60165,22.47221,19.57429Q22.51316,19.54693,22.55866,19.52808Q22.60415,19.50924,22.65245,19.49963Q22.70075,19.49003,22.75,19.49003Q22.799239999999998,19.49003,22.847540000000002,19.49963Q22.89584,19.50924,22.94134,19.52808Q22.98684,19.54693,23.02778,19.57429Q23.068730000000002,19.60165,23.10355,19.63647Q23.138370000000002,19.67129,23.16573,19.71224Q23.193089999999998,19.75319,23.21194,19.79868Q23.23078,19.84418,23.240389999999998,19.89248Q23.25,19.94078,23.25,19.99003Z" fill="#FFFFFF" fill-opacity="1"/></g><g><path d="M17.75,26L17.75,15.5Q17.75,15.4507543,17.759607,15.4024549Q17.769215,15.354155,17.78806,15.308658Q17.806906,15.263161,17.834265,15.222215Q17.861625,15.181269,17.896447,15.146447Q17.931269,15.111625,17.972215,15.084265Q18.013161,15.056906,18.058658,15.03806Q18.104155,15.019214999999999,18.1524549,15.009607Q18.2007543,15,18.25,15Q18.2992457,15,18.3475451,15.009607Q18.395845,15.019214999999999,18.441342,15.03806Q18.486839,15.056906,18.527785,15.084265Q18.568731,15.111625,18.603553,15.146447Q18.638375,15.181269,18.665735,15.222215Q18.693094,15.263161,18.71194,15.308658Q18.730785,15.354155,18.740393,15.4024549Q18.75,15.4507543,18.75,15.5L18.75,26Q18.75,26.0492,18.740393,26.0975Q18.730785,26.1458,18.71194,26.1913Q18.693094,26.236800000000002,18.665735,26.2778Q18.638375,26.3187,18.603553,26.3536Q18.568731,26.3884,18.527785,26.4157Q18.486839,26.4431,18.441342,26.4619Q18.395845,26.480800000000002,18.3475451,26.4904Q18.2992457,26.5,18.25,26.5Q18.2007543,26.5,18.1524549,26.4904Q18.104155,26.480800000000002,18.058658,26.4619Q18.013161,26.4431,17.972215,26.4157Q17.931269,26.3884,17.896447,26.3536Q17.861625,26.3187,17.834265,26.2778Q17.806906,26.236800000000002,17.78806,26.1913Q17.769215,26.1458,17.759607,26.0975Q17.75,26.0492,17.75,26ZM18.75,26Q18.75,26.0492,18.740393,26.0975Q18.730785,26.1458,18.71194,26.1913Q18.693094,26.236800000000002,18.665735,26.2778Q18.638375,26.3187,18.603553,26.3536Q18.568731,26.3884,18.527785,26.4157Q18.486839,26.4431,18.441342,26.4619Q18.395845,26.480800000000002,18.3475451,26.4904Q18.2992457,26.5,18.25,26.5Q18.2007543,26.5,18.1524549,26.4904Q18.104155,26.480800000000002,18.058658,26.4619Q18.013161,26.4431,17.972215,26.4157Q17.931269,26.3884,17.896447,26.3536Q17.861625,26.3187,17.834265,26.2778Q17.806906,26.236800000000002,17.78806,26.1913Q17.769215,26.1458,17.759607,26.0975Q17.75,26.0492,17.75,26Q17.75,25.9508,17.759607,25.9025Q17.769215,25.8542,17.78806,25.8087Q17.806906,25.763199999999998,17.834265,25.7222Q17.861625,25.6813,17.896447,25.6464Q17.931269,25.6116,17.972215,25.5843Q18.013161,25.5569,18.058658,25.5381Q18.104155,25.519199999999998,18.1524549,25.5096Q18.2007543,25.5,18.25,25.5Q18.2992457,25.5,18.3475451,25.5096Q18.395845,25.519199999999998,18.441342,25.5381Q18.486839,25.5569,18.527785,25.5843Q18.568731,25.6116,18.603553,25.6464Q18.638375,25.6813,18.665735,25.7222Q18.693094,25.763199999999998,18.71194,25.8087Q18.730785,25.8542,18.740393,25.9025Q18.75,25.9508,18.75,26ZM18.75,15.5Q18.75,15.5492457,18.740393,15.5975451Q18.730785,15.645845,18.71194,15.691342Q18.693094,15.736839,18.665735,15.777785Q18.638375,15.818731,18.603553,15.853553Q18.568731,15.888375,18.527785,15.915735Q18.486839,15.943094,18.441342,15.96194Q18.395845,15.980785000000001,18.3475451,15.990393Q18.2992457,16,18.25,16Q18.2007543,16,18.1524549,15.990393Q18.104155,15.980785000000001,18.058658,15.96194Q18.013161,15.943094,17.972215,15.915735Q17.931269,15.888375,17.896447,15.853553Q17.861625,15.818731,17.834265,15.777785Q17.806906,15.736839,17.78806,15.691342Q17.769215,15.645845,17.759607,15.5975451Q17.75,15.5492457,17.75,15.5Q17.75,15.4507543,17.759607,15.4024549Q17.769215,15.354155,17.78806,15.308658Q17.806906,15.263161,17.834265,15.222215Q17.861625,15.181269,17.896447,15.146447Q17.931269,15.111625,17.972215,15.084265Q18.013161,15.056906,18.058658,15.03806Q18.104155,15.019214999999999,18.1524549,15.009607Q18.2007543,15,18.25,15Q18.2992457,15,18.3475451,15.009607Q18.395845,15.019214999999999,18.441342,15.03806Q18.486839,15.056906,18.527785,15.084265Q18.568731,15.111625,18.603553,15.146447Q18.638375,15.181269,18.665735,15.222215Q18.693094,15.263161,18.71194,15.308658Q18.730785,15.354155,18.740393,15.4024549Q18.75,15.4507543,18.75,15.5Z" fill="#FFFFFF" fill-opacity="1"/></g></g></g></svg>