<svg xmlns="http://www.w3.org/2000/svg" xmlns:xlink="http://www.w3.org/1999/xlink" fill="none" version="1.1" width="36" height="36" viewBox="0 0 36 36"><defs><clipPath id="master_svg0_116_7749"><rect x="0" y="0" width="36" height="36" rx="0"/></clipPath></defs><g style="mix-blend-mode:passthrough" clip-path="url(#master_svg0_116_7749)"><g style="mix-blend-mode:passthrough"><g><path d="M28.5131,26.5L30.75,26.5Q32.5,26.5,32.5,24.75L32.5,5.25Q32.5,3.5,30.75,3.5L11.25,3.5Q9.5,3.5,9.5,5.25L9.5,7.44528L8.5,7.44528L8.5,5.25Q8.5,4.1109100000000005,9.305441,3.30546Q10.11089,2.5,11.25,2.5L30.75,2.5Q31.8891,2.5,32.6946,3.30546Q33.5,4.1109100000000005,33.5,5.25L33.5,24.75Q33.5,25.8891,32.6946,26.6946Q31.8891,27.5,30.75,27.5L28.5131,27.5L28.5131,26.5Z" fill="#333333" fill-opacity="1"/></g><g><rect x="3" y="7.5" width="25.5" height="25.5" rx="3" fill="#3662EC" fill-opacity="1"/><path d="M2.5,30L2.5,10.5Q2.5,9.05025,3.525126,8.025126Q4.55025,7,6,7L25.5,7Q26.9497,7,27.9749,8.025126Q29,9.05025,29,10.5L29,30Q29,31.4497,27.9749,32.474900000000005Q26.9498,33.5,25.5,33.5L6,33.5Q4.55025,33.5,3.525126,32.474900000000005Q2.5,31.4497,2.5,30ZM3.5,30Q3.5,31.0355,4.2322299999999995,31.7678Q4.96447,32.5,6,32.5L25.5,32.5Q26.5355,32.5,27.2678,31.7678Q28,31.0355,28,30L28,10.5Q28,9.46447,27.2678,8.73223Q26.5355,8,25.5,8L6,8Q4.96447,8,4.2322299999999995,8.73223Q3.5,9.46447,3.5,10.5L3.5,30Z" fill="#333333" fill-opacity="1"/></g><g><path d="M20.60355,13.103553L16.10355,17.60355Q16.068730000000002,17.638370000000002,16.02778,17.66573Q15.98684,17.693089999999998,15.94134,17.71194Q15.89584,17.73078,15.84754,17.740389999999998Q15.799240000000001,17.75,15.75,17.75Q15.70075,17.75,15.65245,17.740389999999998Q15.60415,17.73078,15.55866,17.71194Q15.51316,17.693089999999998,15.47221,17.66573Q15.43127,17.638370000000002,15.39645,17.60355L10.896447,13.103553Q10.861625,13.068731,10.834265,13.027785Q10.806906,12.986839,10.78806,12.941342Q10.769214999999999,12.895845,10.759607,12.8475451Q10.75,12.7992457,10.75,12.75Q10.75,12.7007543,10.759607,12.6524549Q10.769214999999999,12.604155,10.78806,12.558658Q10.806906,12.513161,10.834265,12.472215Q10.861625,12.431269,10.896447,12.396447Q10.931269,12.361625,10.972215,12.334265Q11.013161,12.306906,11.058658,12.28806Q11.104155,12.269214999999999,11.1524549,12.259607Q11.2007543,12.25,11.25,12.25Q11.2992457,12.25,11.3475451,12.259607Q11.395845,12.269214999999999,11.441342,12.28806Q11.486839,12.306906,11.527785,12.334265Q11.568731,12.361625,11.603553,12.396447L16.10355,16.89645L15.75,17.25L15.39645,16.89645L19.89645,12.396447Q19.931269999999998,12.361625,19.97221,12.334265Q20.01316,12.306906,20.05866,12.28806Q20.10415,12.269214999999999,20.15245,12.259607Q20.20075,12.25,20.25,12.25Q20.299239999999998,12.25,20.347540000000002,12.259607Q20.39584,12.269214999999999,20.44134,12.28806Q20.48684,12.306906,20.52778,12.334265Q20.568730000000002,12.361625,20.60355,12.396447Q20.638379999999998,12.431269,20.66573,12.472215Q20.693089999999998,12.513161,20.71194,12.558658Q20.73078,12.604155,20.740389999999998,12.6524549Q20.75,12.7007543,20.75,12.75Q20.75,12.7992457,20.740389999999998,12.8475451Q20.73078,12.895845,20.71194,12.941342Q20.693089999999998,12.986839,20.66573,13.027785Q20.638379999999998,13.068731,20.60355,13.103553ZM20.75,12.75Q20.75,12.7992457,20.740389999999998,12.8475451Q20.73078,12.895845,20.71194,12.941342Q20.693089999999998,12.986839,20.66573,13.027785Q20.638370000000002,13.068731,20.60355,13.103553Q20.568730000000002,13.138375,20.52778,13.165735Q20.48684,13.193094,20.44134,13.21194Q20.39584,13.230785000000001,20.347540000000002,13.240393Q20.299239999999998,13.25,20.25,13.25Q20.20075,13.25,20.15245,13.240393Q20.10415,13.230785000000001,20.05866,13.21194Q20.01316,13.193094,19.97221,13.165735Q19.931269999999998,13.138375,19.89645,13.103553Q19.861620000000002,13.068731,19.83426,13.027785Q19.8069,12.986839,19.78806,12.941342Q19.76921,12.895845,19.759610000000002,12.8475451Q19.75,12.7992457,19.75,12.75Q19.75,12.7007543,19.759610000000002,12.6524549Q19.76921,12.604155,19.78806,12.558658Q19.8069,12.513161,19.83426,12.472215Q19.861620000000002,12.431269,19.89645,12.396447Q19.931269999999998,12.361625,19.97221,12.334265Q20.01316,12.306906,20.05866,12.28806Q20.10415,12.269214999999999,20.15245,12.259607Q20.20075,12.25,20.25,12.25Q20.299239999999998,12.25,20.347540000000002,12.259607Q20.39584,12.269214999999999,20.44134,12.28806Q20.48684,12.306906,20.52778,12.334265Q20.568730000000002,12.361625,20.60355,12.396447Q20.638370000000002,12.431269,20.66573,12.472215Q20.693089999999998,12.513161,20.71194,12.558658Q20.73078,12.604155,20.740389999999998,12.6524549Q20.75,12.7007543,20.75,12.75ZM11.75,12.75Q11.75,12.7992457,11.740393,12.8475451Q11.730785000000001,12.895845,11.71194,12.941342Q11.693094,12.986839,11.665735,13.027785Q11.638375,13.068731,11.603553,13.103553Q11.568731,13.138375,11.527785,13.165735Q11.486839,13.193094,11.441342,13.21194Q11.395845,13.230785000000001,11.3475451,13.240393Q11.2992457,13.25,11.25,13.25Q11.2007543,13.25,11.1524549,13.240393Q11.104155,13.230785000000001,11.058658,13.21194Q11.013161,13.193094,10.972215,13.165735Q10.931269,13.138375,10.896447,13.103553Q10.861625,13.068731,10.834265,13.027785Q10.806906,12.986839,10.78806,12.941342Q10.769214999999999,12.895845,10.759607,12.8475451Q10.75,12.7992457,10.75,12.75Q10.75,12.7007543,10.759607,12.6524549Q10.769214999999999,12.604155,10.78806,12.558658Q10.806906,12.513161,10.834265,12.472215Q10.861625,12.431269,10.896447,12.396447Q10.931269,12.361625,10.972215,12.334265Q11.013161,12.306906,11.058658,12.28806Q11.104155,12.269214999999999,11.1524549,12.259607Q11.2007543,12.25,11.25,12.25Q11.2992457,12.25,11.3475451,12.259607Q11.395845,12.269214999999999,11.441342,12.28806Q11.486839,12.306906,11.527785,12.334265Q11.568731,12.361625,11.603553,12.396447Q11.638375,12.431269,11.665735,12.472215Q11.693094,12.513161,11.71194,12.558658Q11.730785000000001,12.604155,11.740393,12.6524549Q11.75,12.7007543,11.75,12.75Z" fill="#FFFFFF" fill-opacity="1"/></g><g><path d="M21,19.25L10.5,19.25Q10.4507543,19.25,10.4024549,19.240393Q10.354155,19.230785,10.308658,19.21194Q10.263161,19.193094,10.222215,19.165735Q10.181269,19.138375,10.146447,19.103553Q10.111625,19.068731,10.084265,19.027785Q10.056906,18.986839,10.03806,18.941342Q10.019214999999999,18.895845,10.009607,18.8475451Q10,18.7992457,10,18.75Q10,18.7007543,10.009607,18.6524549Q10.019214999999999,18.604155,10.03806,18.558658Q10.056906,18.513161,10.084265,18.472215Q10.111625,18.431269,10.146447,18.396447Q10.181269,18.361625,10.222215,18.334265Q10.263161,18.306906,10.308658,18.28806Q10.354155,18.269215,10.4024549,18.259607Q10.4507543,18.25,10.5,18.25L21,18.25Q21.0492,18.25,21.0975,18.259607Q21.1458,18.269215,21.1913,18.28806Q21.236800000000002,18.306906,21.2778,18.334265Q21.3187,18.361625,21.3536,18.396447Q21.3884,18.431269,21.4157,18.472215Q21.4431,18.513161,21.4619,18.558658Q21.480800000000002,18.604155,21.4904,18.6524549Q21.5,18.7007543,21.5,18.75Q21.5,18.7992457,21.4904,18.8475451Q21.480800000000002,18.895845,21.4619,18.941342Q21.4431,18.986839,21.4157,19.027785Q21.3884,19.068731,21.3536,19.103553Q21.3187,19.138375,21.2778,19.165735Q21.236800000000002,19.193094,21.1913,19.21194Q21.1458,19.230785,21.0975,19.240393Q21.0492,19.25,21,19.25ZM21.5,18.75Q21.5,18.7992457,21.4904,18.8475451Q21.480800000000002,18.895845,21.4619,18.941342Q21.4431,18.986839,21.4157,19.027785Q21.3884,19.068731,21.3536,19.103553Q21.3187,19.138375,21.2778,19.165735Q21.236800000000002,19.193094,21.1913,19.21194Q21.1458,19.230785,21.0975,19.240393Q21.0492,19.25,21,19.25Q20.9508,19.25,20.9025,19.240393Q20.8542,19.230785,20.8087,19.21194Q20.763199999999998,19.193094,20.7222,19.165735Q20.6813,19.138375,20.6464,19.103553Q20.6116,19.068731,20.5843,19.027785Q20.5569,18.986839,20.5381,18.941342Q20.519199999999998,18.895845,20.5096,18.8475451Q20.5,18.7992457,20.5,18.75Q20.5,18.7007543,20.5096,18.6524549Q20.519199999999998,18.604155,20.5381,18.558658Q20.5569,18.513161,20.5843,18.472215Q20.6116,18.431269,20.6464,18.396447Q20.6813,18.361625,20.7222,18.334265Q20.763199999999998,18.306906,20.8087,18.28806Q20.8542,18.269215,20.9025,18.259607Q20.9508,18.25,21,18.25Q21.0492,18.25,21.0975,18.259607Q21.1458,18.269215,21.1913,18.28806Q21.236800000000002,18.306906,21.2778,18.334265Q21.3187,18.361625,21.3536,18.396447Q21.3884,18.431269,21.4157,18.472215Q21.4431,18.513161,21.4619,18.558658Q21.480800000000002,18.604155,21.4904,18.6524549Q21.5,18.7007543,21.5,18.75ZM11,18.75Q11,18.7992457,10.990393,18.8475451Q10.980785000000001,18.895845,10.96194,18.941342Q10.943094,18.986839,10.915735,19.027785Q10.888375,19.068731,10.853553,19.103553Q10.818731,19.138375,10.777785,19.165735Q10.736839,19.193094,10.691342,19.21194Q10.645845,19.230785,10.5975451,19.240393Q10.5492457,19.25,10.5,19.25Q10.4507543,19.25,10.4024549,19.240393Q10.354155,19.230785,10.308658,19.21194Q10.263161,19.193094,10.222215,19.165735Q10.181269,19.138375,10.146447,19.103553Q10.111625,19.068731,10.084265,19.027785Q10.056906,18.986839,10.03806,18.941342Q10.019214999999999,18.895845,10.009607,18.8475451Q10,18.7992457,10,18.75Q10,18.7007543,10.009607,18.6524549Q10.019214999999999,18.604155,10.03806,18.558658Q10.056906,18.513161,10.084265,18.472215Q10.111625,18.431269,10.146447,18.396447Q10.181269,18.361625,10.222215,18.334265Q10.263161,18.306906,10.308658,18.28806Q10.354155,18.269215,10.4024549,18.259607Q10.4507543,18.25,10.5,18.25Q10.5492457,18.25,10.5975451,18.259607Q10.645845,18.269215,10.691342,18.28806Q10.736839,18.306906,10.777785,18.334265Q10.818731,18.361625,10.853553,18.396447Q10.888375,18.431269,10.915735,18.472215Q10.943094,18.513161,10.96194,18.558658Q10.980785000000001,18.604155,10.990393,18.6524549Q11,18.7007543,11,18.75Z" fill="#FFFFFF" fill-opacity="1"/></g><g><path d="M21,23.75L10.5,23.75Q10.4507543,23.75,10.4024549,23.740393Q10.354155,23.730785,10.308658,23.71194Q10.263161,23.693094,10.222215,23.665735Q10.181269,23.638375,10.146447,23.603553Q10.111625,23.568731,10.084265,23.527785Q10.056906,23.486839,10.03806,23.441342Q10.019214999999999,23.395845,10.009607,23.3475451Q10,23.2992457,10,23.25Q10,23.2007543,10.009607,23.1524549Q10.019214999999999,23.104155,10.03806,23.058658Q10.056906,23.013161,10.084265,22.972215Q10.111625,22.931269,10.146447,22.896447Q10.181269,22.861625,10.222215,22.834265Q10.263161,22.806906,10.308658,22.78806Q10.354155,22.769215,10.4024549,22.759607Q10.4507543,22.75,10.5,22.75L21,22.75Q21.0492,22.75,21.0975,22.759607Q21.1458,22.769215,21.1913,22.78806Q21.236800000000002,22.806906,21.2778,22.834265Q21.3187,22.861625,21.3536,22.896447Q21.3884,22.931269,21.4157,22.972215Q21.4431,23.013161,21.4619,23.058658Q21.480800000000002,23.104155,21.4904,23.1524549Q21.5,23.2007543,21.5,23.25Q21.5,23.2992457,21.4904,23.3475451Q21.480800000000002,23.395845,21.4619,23.441342Q21.4431,23.486839,21.4157,23.527785Q21.3884,23.568731,21.3536,23.603553Q21.3187,23.638375,21.2778,23.665735Q21.236800000000002,23.693094,21.1913,23.71194Q21.1458,23.730785,21.0975,23.740393Q21.0492,23.75,21,23.75ZM21.5,23.25Q21.5,23.2992457,21.4904,23.3475451Q21.480800000000002,23.395845,21.4619,23.441342Q21.4431,23.486839,21.4157,23.527785Q21.3884,23.568731,21.3536,23.603553Q21.3187,23.638375,21.2778,23.665735Q21.236800000000002,23.693094,21.1913,23.71194Q21.1458,23.730785,21.0975,23.740393Q21.0492,23.75,21,23.75Q20.9508,23.75,20.9025,23.740393Q20.8542,23.730785,20.8087,23.71194Q20.763199999999998,23.693094,20.7222,23.665735Q20.6813,23.638375,20.6464,23.603553Q20.6116,23.568731,20.5843,23.527785Q20.5569,23.486839,20.5381,23.441342Q20.519199999999998,23.395845,20.5096,23.3475451Q20.5,23.2992457,20.5,23.25Q20.5,23.2007543,20.5096,23.1524549Q20.519199999999998,23.104155,20.5381,23.058658Q20.5569,23.013161,20.5843,22.972215Q20.6116,22.931269,20.6464,22.896447Q20.6813,22.861625,20.7222,22.834265Q20.763199999999998,22.806906,20.8087,22.78806Q20.8542,22.769215,20.9025,22.759607Q20.9508,22.75,21,22.75Q21.0492,22.75,21.0975,22.759607Q21.1458,22.769215,21.1913,22.78806Q21.236800000000002,22.806906,21.2778,22.834265Q21.3187,22.861625,21.3536,22.896447Q21.3884,22.931269,21.4157,22.972215Q21.4431,23.013161,21.4619,23.058658Q21.480800000000002,23.104155,21.4904,23.1524549Q21.5,23.2007543,21.5,23.25ZM11,23.25Q11,23.2992457,10.990393,23.3475451Q10.980785000000001,23.395845,10.96194,23.441342Q10.943094,23.486839,10.915735,23.527785Q10.888375,23.568731,10.853553,23.603553Q10.818731,23.638375,10.777785,23.665735Q10.736839,23.693094,10.691342,23.71194Q10.645845,23.730785,10.5975451,23.740393Q10.5492457,23.75,10.5,23.75Q10.4507543,23.75,10.4024549,23.740393Q10.354155,23.730785,10.308658,23.71194Q10.263161,23.693094,10.222215,23.665735Q10.181269,23.638375,10.146447,23.603553Q10.111625,23.568731,10.084265,23.527785Q10.056906,23.486839,10.03806,23.441342Q10.019214999999999,23.395845,10.009607,23.3475451Q10,23.2992457,10,23.25Q10,23.2007543,10.009607,23.1524549Q10.019214999999999,23.104155,10.03806,23.058658Q10.056906,23.013161,10.084265,22.972215Q10.111625,22.931269,10.146447,22.896447Q10.181269,22.861625,10.222215,22.834265Q10.263161,22.806906,10.308658,22.78806Q10.354155,22.769215,10.4024549,22.759607Q10.4507543,22.75,10.5,22.75Q10.5492457,22.75,10.5975451,22.759607Q10.645845,22.769215,10.691342,22.78806Q10.736839,22.806906,10.777785,22.834265Q10.818731,22.861625,10.853553,22.896447Q10.888375,22.931269,10.915735,22.972215Q10.943094,23.013161,10.96194,23.058658Q10.980785000000001,23.104155,10.990393,23.1524549Q11,23.2007543,11,23.25Z" fill="#FFFFFF" fill-opacity="1"/></g><g><path d="M15.25,27L15.25,18.75Q15.25,18.7007543,15.259607,18.6524549Q15.269214999999999,18.604155,15.28806,18.558658Q15.306906,18.513161,15.334265,18.472215Q15.361625,18.431269,15.396447,18.396447Q15.431269,18.361625,15.472215,18.334265Q15.513161,18.306906,15.558658,18.28806Q15.604155,18.269215,15.6524549,18.259607Q15.7007543,18.25,15.75,18.25Q15.7992457,18.25,15.8475451,18.259607Q15.895845,18.269215,15.941342,18.28806Q15.986839,18.306906,16.027785,18.334265Q16.068731,18.361625,16.103553,18.396447Q16.138375,18.431269,16.165735,18.472215Q16.193094,18.513161,16.21194,18.558658Q16.230785,18.604155,16.240393,18.6524549Q16.25,18.7007543,16.25,18.75L16.25,27Q16.25,27.049239999999998,16.240393,27.097540000000002Q16.230785,27.14584,16.21194,27.19134Q16.193094,27.23684,16.165735,27.27778Q16.138375,27.318730000000002,16.103553,27.35355Q16.068731,27.388370000000002,16.027785,27.41573Q15.986839,27.443089999999998,15.941342,27.46194Q15.895845,27.48078,15.8475451,27.490389999999998Q15.7992457,27.5,15.75,27.5Q15.7007543,27.5,15.6524549,27.490389999999998Q15.604155,27.48078,15.558658,27.46194Q15.513161,27.443089999999998,15.472215,27.41573Q15.431269,27.388370000000002,15.396447,27.35355Q15.361625,27.318730000000002,15.334265,27.27778Q15.306906,27.23684,15.28806,27.19134Q15.269214999999999,27.14584,15.259607,27.097540000000002Q15.25,27.049239999999998,15.25,27ZM16.25,27Q16.25,27.049239999999998,16.240393,27.097540000000002Q16.230785,27.14584,16.21194,27.19134Q16.193094,27.23684,16.165735,27.27778Q16.138375,27.318730000000002,16.103553,27.35355Q16.068731,27.388370000000002,16.027785,27.41573Q15.986839,27.443089999999998,15.941342,27.46194Q15.895845,27.48078,15.8475451,27.490389999999998Q15.7992457,27.5,15.75,27.5Q15.7007543,27.5,15.6524549,27.490389999999998Q15.604155,27.48078,15.558658,27.46194Q15.513161,27.443089999999998,15.472215,27.41573Q15.431269,27.388370000000002,15.396447,27.35355Q15.361625,27.318730000000002,15.334265,27.27778Q15.306906,27.23684,15.28806,27.19134Q15.269214999999999,27.14584,15.259607,27.097540000000002Q15.25,27.049239999999998,15.25,27Q15.25,26.95075,15.259607,26.90245Q15.269214999999999,26.85415,15.28806,26.80866Q15.306906,26.76316,15.334265,26.72221Q15.361625,26.681269999999998,15.396447,26.64645Q15.431269,26.611620000000002,15.472215,26.58426Q15.513161,26.556910000000002,15.558658,26.53806Q15.604155,26.51921,15.6524549,26.509610000000002Q15.7007543,26.5,15.75,26.5Q15.7992457,26.5,15.8475451,26.509610000000002Q15.895845,26.51921,15.941342,26.53806Q15.986839,26.556910000000002,16.027785,26.58426Q16.068731,26.611620000000002,16.103553,26.64645Q16.138375,26.681269999999998,16.165735,26.72221Q16.193094,26.76316,16.21194,26.80866Q16.230785,26.85415,16.240393,26.90245Q16.25,26.95075,16.25,27ZM16.25,18.75Q16.25,18.7992457,16.240393,18.8475451Q16.230785,18.895845,16.21194,18.941342Q16.193094,18.986839,16.165735,19.027785Q16.138375,19.068731,16.103553,19.103553Q16.068731,19.138375,16.027785,19.165735Q15.986839,19.193094,15.941342,19.21194Q15.895845,19.230785,15.8475451,19.240393Q15.7992457,19.25,15.75,19.25Q15.7007543,19.25,15.6524549,19.240393Q15.604155,19.230785,15.558658,19.21194Q15.513161,19.193094,15.472215,19.165735Q15.431269,19.138375,15.396447,19.103553Q15.361625,19.068731,15.334265,19.027785Q15.306906,18.986839,15.28806,18.941342Q15.269214999999999,18.895845,15.259607,18.8475451Q15.25,18.7992457,15.25,18.75Q15.25,18.7007543,15.259607,18.6524549Q15.269214999999999,18.604155,15.28806,18.558658Q15.306906,18.513161,15.334265,18.472215Q15.361625,18.431269,15.396447,18.396447Q15.431269,18.361625,15.472215,18.334265Q15.513161,18.306906,15.558658,18.28806Q15.604155,18.269215,15.6524549,18.259607Q15.7007543,18.25,15.75,18.25Q15.7992457,18.25,15.8475451,18.259607Q15.895845,18.269215,15.941342,18.28806Q15.986839,18.306906,16.027785,18.334265Q16.068731,18.361625,16.103553,18.396447Q16.138375,18.431269,16.165735,18.472215Q16.193094,18.513161,16.21194,18.558658Q16.230785,18.604155,16.240393,18.6524549Q16.25,18.7007543,16.25,18.75Z" fill="#FFFFFF" fill-opacity="1"/></g></g></g></svg>