<svg xmlns="http://www.w3.org/2000/svg" xmlns:xlink="http://www.w3.org/1999/xlink" fill="none" version="1.1" width="36" height="36" viewBox="0 0 36 36"><defs><clipPath id="master_svg0_116_7749"><rect x="0" y="0" width="36" height="36" rx="0"/></clipPath></defs><g style="mix-blend-mode:passthrough" clip-path="url(#master_svg0_116_7749)"><g><g><path d="M3,13.73475L3,6L33,6L33,13.73475C31.4111,14.301,30.2727,15.82898,30.2727,17.625C30.2727,19.421,31.4111,20.948999999999998,33,21.5153L33,29.25L3,29.25L3,21.5153C4.5889,20.948999999999998,5.72727,19.421,5.72727,17.625C5.72727,15.82898,4.5889,14.301,3,13.73475Z" fill="#3662EC" fill-opacity="1"/><path d="M5.22727,17.625Q5.22727,15.05931,2.83215,14.20573Q2.759254,14.17976,2.697622,14.13295Q2.63599,14.08615,2.59139,14.02291Q2.546789,13.95967,2.523395,13.8859Q2.5,13.81214,2.5,13.73475L2.5,6Q2.5,5.9507543,2.509607,5.9024549Q2.519215,5.854155,2.5380599999999998,5.808658Q2.556906,5.763161,2.584265,5.722215Q2.611625,5.681269,2.646447,5.646447Q2.681269,5.611625,2.722215,5.584265Q2.763161,5.556906,2.808658,5.53806Q2.854155,5.519215,2.9024549,5.509607Q2.9507543,5.5,3,5.5L33,5.5Q33.0492,5.5,33.0975,5.509607Q33.1458,5.519215,33.1913,5.53806Q33.2368,5.556906,33.2778,5.584265Q33.3187,5.611625,33.3536,5.646447Q33.388400000000004,5.681269,33.4157,5.722215Q33.4431,5.763161,33.4619,5.808658Q33.4808,5.854155,33.4904,5.9024549Q33.5,5.9507543,33.5,6L33.5,13.73475Q33.5,13.81214,33.476600000000005,13.8859Q33.453199999999995,13.95967,33.4086,14.02291Q33.364000000000004,14.08615,33.3024,14.13295Q33.240700000000004,14.17975,33.1679,14.20573Q30.7727,15.05933,30.7727,17.625Q30.7727,20.1907,33.1679,21.0443Q33.240700000000004,21.0702,33.3024,21.117Q33.364000000000004,21.163800000000002,33.4086,21.2271Q33.453199999999995,21.290300000000002,33.476600000000005,21.3641Q33.5,21.4379,33.5,21.5153L33.5,29.25Q33.5,29.2992,33.4904,29.3475Q33.4808,29.3958,33.4619,29.4413Q33.4431,29.4868,33.4157,29.5278Q33.388400000000004,29.5687,33.3536,29.6036Q33.3187,29.6384,33.2778,29.6657Q33.2368,29.6931,33.1913,29.7119Q33.1458,29.7308,33.0975,29.7404Q33.0492,29.75,33,29.75L3,29.75Q2.9507543,29.75,2.9024549,29.7404Q2.854155,29.7308,2.808658,29.7119Q2.763161,29.6931,2.722215,29.6657Q2.681269,29.6384,2.646447,29.6036Q2.611625,29.5687,2.584265,29.5278Q2.556906,29.4868,2.5380599999999998,29.4413Q2.519215,29.3958,2.509607,29.3475Q2.5,29.2992,2.5,29.25L2.5,21.5153Q2.5,21.4379,2.523395,21.3641Q2.54679,21.290300000000002,2.59139,21.2271Q2.63599,21.163800000000002,2.697622,21.117Q2.759254,21.0702,2.832151,21.0443Q5.22727,20.1907,5.22727,17.625L5.22727,17.625ZM6.22727,17.625Q6.22727,20.895899999999997,3.167849,21.9862L3,21.5153L3.5,21.5153L3.5,29.25L3,29.25L3,28.75L33,28.75L33,29.25L32.5,29.25L32.5,21.5153L33,21.5153L32.8321,21.9862Q29.7727,20.895899999999997,29.7727,17.625Q29.7727,14.35411,32.8321,13.263770000000001L33,13.73475L32.5,13.73475L32.5,6L33,6L33,6.5L3,6.5L3,6L3.5,6L3.5,13.73475L3,13.73475L3.167849,13.263770000000001Q6.22727,14.35409,6.22727,17.625L6.22727,17.625Z" fill="#333333" fill-opacity="1"/></g><g><path d="M22.10355,11.603553L18.35355,15.35355Q18.318730000000002,15.38837,18.27778,15.41573Q18.23684,15.44309,18.19134,15.46194Q18.14584,15.48078,18.09754,15.49039Q18.04925,15.5,18,15.5Q17.95075,15.5,17.90245,15.49039Q17.85415,15.48078,17.80866,15.46194Q17.76316,15.44309,17.72221,15.41573Q17.68127,15.38837,17.64645,15.35355L13.896447,11.603553Q13.861625,11.568731,13.834265,11.527785Q13.806906,11.486839,13.78806,11.441342Q13.769214999999999,11.395845,13.759607,11.3475451Q13.75,11.2992457,13.75,11.25Q13.75,11.2007543,13.759607,11.1524549Q13.769214999999999,11.104155,13.78806,11.058658Q13.806906,11.013161,13.834265,10.972215Q13.861625,10.931269,13.896447,10.896447Q13.931269,10.861625,13.972215,10.834265Q14.013161,10.806906,14.058658,10.78806Q14.104155,10.769214999999999,14.1524549,10.759607Q14.2007543,10.75,14.25,10.75Q14.2992457,10.75,14.3475451,10.759607Q14.395845,10.769214999999999,14.441342,10.78806Q14.486839,10.806906,14.527785,10.834265Q14.568731,10.861625,14.603553,10.896447L18.35355,14.64645L18,15L17.64645,14.64645L21.39645,10.896447Q21.431269999999998,10.861625,21.47221,10.834265Q21.51316,10.806906,21.55866,10.78806Q21.60415,10.769214999999999,21.65245,10.759607Q21.70075,10.75,21.75,10.75Q21.79925,10.75,21.847540000000002,10.759607Q21.89584,10.769214999999999,21.94134,10.78806Q21.98684,10.806906,22.02778,10.834265Q22.068730000000002,10.861625,22.10355,10.896447Q22.138370000000002,10.931269,22.16573,10.972215Q22.193089999999998,11.013161,22.21194,11.058658Q22.23078,11.104155,22.240389999999998,11.1524549Q22.25,11.2007543,22.25,11.25Q22.25,11.2992457,22.240389999999998,11.3475451Q22.23078,11.395845,22.21194,11.441342Q22.193089999999998,11.486839,22.16573,11.527785Q22.138370000000002,11.568731,22.10355,11.603553ZM22.25,11.25Q22.25,11.2992457,22.240389999999998,11.3475451Q22.23078,11.395845,22.21194,11.441342Q22.193089999999998,11.486839,22.16573,11.527785Q22.138370000000002,11.568731,22.10355,11.603553Q22.068730000000002,11.638375,22.02778,11.665735Q21.98684,11.693094,21.94134,11.71194Q21.89584,11.730785000000001,21.847540000000002,11.740393Q21.79925,11.75,21.75,11.75Q21.70075,11.75,21.65245,11.740393Q21.60415,11.730785000000001,21.55866,11.71194Q21.51316,11.693094,21.47221,11.665735Q21.431269999999998,11.638375,21.39645,11.603553Q21.361620000000002,11.568731,21.33426,11.527785Q21.3069,11.486839,21.28806,11.441342Q21.26921,11.395845,21.259610000000002,11.3475451Q21.25,11.2992457,21.25,11.25Q21.25,11.2007543,21.259610000000002,11.1524549Q21.26921,11.104155,21.28806,11.058658Q21.3069,11.013161,21.33426,10.972215Q21.361620000000002,10.931269,21.39645,10.896447Q21.431269999999998,10.861625,21.47221,10.834265Q21.51316,10.806906,21.55866,10.78806Q21.60415,10.769214999999999,21.65245,10.759607Q21.70075,10.75,21.75,10.75Q21.79925,10.75,21.847540000000002,10.759607Q21.89584,10.769214999999999,21.94134,10.78806Q21.98684,10.806906,22.02778,10.834265Q22.068730000000002,10.861625,22.10355,10.896447Q22.138370000000002,10.931269,22.16573,10.972215Q22.193089999999998,11.013161,22.21194,11.058658Q22.23078,11.104155,22.240389999999998,11.1524549Q22.25,11.2007543,22.25,11.25ZM14.75,11.25Q14.75,11.2992457,14.740393,11.3475451Q14.730785000000001,11.395845,14.71194,11.441342Q14.693094,11.486839,14.665735,11.527785Q14.638375,11.568731,14.603553,11.603553Q14.568731,11.638375,14.527785,11.665735Q14.486839,11.693094,14.441342,11.71194Q14.395845,11.730785000000001,14.3475451,11.740393Q14.2992457,11.75,14.25,11.75Q14.2007543,11.75,14.1524549,11.740393Q14.104155,11.730785000000001,14.058658,11.71194Q14.013161,11.693094,13.972215,11.665735Q13.931269,11.638375,13.896447,11.603553Q13.861625,11.568731,13.834265,11.527785Q13.806906,11.486839,13.78806,11.441342Q13.769214999999999,11.395845,13.759607,11.3475451Q13.75,11.2992457,13.75,11.25Q13.75,11.2007543,13.759607,11.1524549Q13.769214999999999,11.104155,13.78806,11.058658Q13.806906,11.013161,13.834265,10.972215Q13.861625,10.931269,13.896447,10.896447Q13.931269,10.861625,13.972215,10.834265Q14.013161,10.806906,14.058658,10.78806Q14.104155,10.769214999999999,14.1524549,10.759607Q14.2007543,10.75,14.25,10.75Q14.2992457,10.75,14.3475451,10.759607Q14.395845,10.769214999999999,14.441342,10.78806Q14.486839,10.806906,14.527785,10.834265Q14.568731,10.861625,14.603553,10.896447Q14.638375,10.931269,14.665735,10.972215Q14.693094,11.013161,14.71194,11.058658Q14.730785000000001,11.104155,14.740393,11.1524549Q14.75,11.2007543,14.75,11.25Z" fill="#FFFFFF" fill-opacity="1"/></g><g><path d="M22.5,16.25L13.5,16.25Q13.4507543,16.25,13.4024549,16.240393Q13.354155,16.230785,13.308658,16.21194Q13.263161,16.193094,13.222215,16.165735Q13.181269,16.138375,13.146447,16.103553Q13.111625,16.068731,13.084265,16.027785Q13.056906,15.986839,13.03806,15.941342Q13.019214999999999,15.895845,13.009607,15.8475451Q13,15.7992457,13,15.75Q13,15.7007543,13.009607,15.6524549Q13.019214999999999,15.604155,13.03806,15.558658Q13.056906,15.513161,13.084265,15.472215Q13.111625,15.431269,13.146447,15.396447Q13.181269,15.361625,13.222215,15.334265Q13.263161,15.306906,13.308658,15.28806Q13.354155,15.269214999999999,13.4024549,15.259607Q13.4507543,15.25,13.5,15.25L22.5,15.25Q22.549239999999998,15.25,22.597540000000002,15.259607Q22.64584,15.269214999999999,22.69134,15.28806Q22.73684,15.306906,22.77778,15.334265Q22.818730000000002,15.361625,22.85355,15.396447Q22.888370000000002,15.431269,22.91573,15.472215Q22.943089999999998,15.513161,22.96194,15.558658Q22.98078,15.604155,22.990389999999998,15.6524549Q23,15.7007543,23,15.75Q23,15.7992457,22.990389999999998,15.8475451Q22.98078,15.895845,22.96194,15.941342Q22.943089999999998,15.986839,22.91573,16.027785Q22.888370000000002,16.068731,22.85355,16.103553Q22.818730000000002,16.138375,22.77778,16.165735Q22.73684,16.193094,22.69134,16.21194Q22.64584,16.230785,22.597540000000002,16.240393Q22.549239999999998,16.25,22.5,16.25ZM23,15.75Q23,15.7992457,22.990389999999998,15.8475451Q22.98078,15.895845,22.96194,15.941342Q22.943089999999998,15.986839,22.91573,16.027785Q22.888370000000002,16.068731,22.85355,16.103553Q22.818730000000002,16.138375,22.77778,16.165735Q22.73684,16.193094,22.69134,16.21194Q22.64584,16.230785,22.597540000000002,16.240393Q22.549239999999998,16.25,22.5,16.25Q22.45075,16.25,22.40245,16.240393Q22.35415,16.230785,22.30866,16.21194Q22.26316,16.193094,22.22221,16.165735Q22.181269999999998,16.138375,22.14645,16.103553Q22.111620000000002,16.068731,22.08426,16.027785Q22.0569,15.986839,22.03806,15.941342Q22.01921,15.895845,22.009610000000002,15.8475451Q22,15.7992457,22,15.75Q22,15.7007543,22.009610000000002,15.6524549Q22.01921,15.604155,22.03806,15.558658Q22.0569,15.513161,22.08426,15.472215Q22.111620000000002,15.431269,22.14645,15.396447Q22.181269999999998,15.361625,22.22221,15.334265Q22.26316,15.306906,22.30866,15.28806Q22.35415,15.269214999999999,22.40245,15.259607Q22.45075,15.25,22.5,15.25Q22.549239999999998,15.25,22.597540000000002,15.259607Q22.64584,15.269214999999999,22.69134,15.28806Q22.73684,15.306906,22.77778,15.334265Q22.818730000000002,15.361625,22.85355,15.396447Q22.888370000000002,15.431269,22.91573,15.472215Q22.943089999999998,15.513161,22.96194,15.558658Q22.98078,15.604155,22.990389999999998,15.6524549Q23,15.7007543,23,15.75ZM14,15.75Q14,15.7992457,13.990393,15.8475451Q13.980785000000001,15.895845,13.96194,15.941342Q13.943094,15.986839,13.915735,16.027785Q13.888375,16.068731,13.853553,16.103553Q13.818731,16.138375,13.777785,16.165735Q13.736839,16.193094,13.691342,16.21194Q13.645845,16.230785,13.5975451,16.240393Q13.5492457,16.25,13.5,16.25Q13.4507543,16.25,13.4024549,16.240393Q13.354155,16.230785,13.308658,16.21194Q13.263161,16.193094,13.222215,16.165735Q13.181269,16.138375,13.146447,16.103553Q13.111625,16.068731,13.084265,16.027785Q13.056906,15.986839,13.03806,15.941342Q13.019214999999999,15.895845,13.009607,15.8475451Q13,15.7992457,13,15.75Q13,15.7007543,13.009607,15.6524549Q13.019214999999999,15.604155,13.03806,15.558658Q13.056906,15.513161,13.084265,15.472215Q13.111625,15.431269,13.146447,15.396447Q13.181269,15.361625,13.222215,15.334265Q13.263161,15.306906,13.308658,15.28806Q13.354155,15.269214999999999,13.4024549,15.259607Q13.4507543,15.25,13.5,15.25Q13.5492457,15.25,13.5975451,15.259607Q13.645845,15.269214999999999,13.691342,15.28806Q13.736839,15.306906,13.777785,15.334265Q13.818731,15.361625,13.853553,15.396447Q13.888375,15.431269,13.915735,15.472215Q13.943094,15.513161,13.96194,15.558658Q13.980785000000001,15.604155,13.990393,15.6524549Q14,15.7007543,14,15.75Z" fill="#FFFFFF" fill-opacity="1"/></g><g><path d="M22.5,20.875030517578125L13.5,20.875030517578125Q13.4507543,20.875030517578125,13.4024549,20.865423517578126Q13.354155,20.855815517578126,13.308658,20.836970517578123Q13.263161,20.818124517578124,13.222215,20.790765517578127Q13.181269,20.763405517578125,13.146447,20.728583517578127Q13.111625,20.693761517578125,13.084265,20.652815517578127Q13.056906,20.611869517578125,13.03806,20.566372517578124Q13.019214999999999,20.520875517578126,13.009607,20.472575617578126Q13,20.424276217578125,13,20.375030517578125Q13,20.325784817578125,13.009607,20.277485417578124Q13.019214999999999,20.229185517578124,13.03806,20.183688517578126Q13.056906,20.138191517578125,13.084265,20.097245517578123Q13.111625,20.056299517578125,13.146447,20.021477517578123Q13.181269,19.986655517578125,13.222215,19.959295517578123Q13.263161,19.931936517578126,13.308658,19.913090517578127Q13.354155,19.894245517578124,13.4024549,19.884637517578124Q13.4507543,19.875030517578125,13.5,19.875030517578125L22.5,19.875030517578125Q22.549239999999998,19.875030517578125,22.597540000000002,19.884637517578124Q22.64584,19.894245517578124,22.69134,19.913090517578127Q22.73684,19.931936517578126,22.77778,19.959295517578123Q22.818730000000002,19.986655517578125,22.85355,20.021477517578123Q22.888370000000002,20.056299517578125,22.91573,20.097245517578123Q22.943089999999998,20.138191517578125,22.96194,20.183688517578126Q22.98078,20.229185517578124,22.990389999999998,20.277485417578124Q23,20.325784817578125,23,20.375030517578125Q23,20.424276217578125,22.990389999999998,20.472575617578126Q22.98078,20.520875517578126,22.96194,20.566372517578124Q22.943089999999998,20.611869517578125,22.91573,20.652815517578127Q22.888370000000002,20.693761517578125,22.85355,20.728583517578127Q22.818730000000002,20.763405517578125,22.77778,20.790765517578127Q22.73684,20.818124517578124,22.69134,20.836970517578123Q22.64584,20.855815517578126,22.597540000000002,20.865423517578126Q22.549239999999998,20.875030517578125,22.5,20.875030517578125ZM23,20.375030517578125Q23,20.424276217578125,22.990389999999998,20.472575617578126Q22.98078,20.520875517578126,22.96194,20.566372517578124Q22.943089999999998,20.611869517578125,22.91573,20.652815517578127Q22.888370000000002,20.693761517578125,22.85355,20.728583517578127Q22.818730000000002,20.763405517578125,22.77778,20.790765517578127Q22.73684,20.818124517578124,22.69134,20.836970517578123Q22.64584,20.855815517578126,22.597540000000002,20.865423517578126Q22.549239999999998,20.875030517578125,22.5,20.875030517578125Q22.45075,20.875030517578125,22.40245,20.865423517578126Q22.35415,20.855815517578126,22.30866,20.836970517578123Q22.26316,20.818124517578124,22.22221,20.790765517578127Q22.181269999999998,20.763405517578125,22.14645,20.728583517578127Q22.111620000000002,20.693761517578125,22.08426,20.652815517578127Q22.0569,20.611869517578125,22.03806,20.566372517578124Q22.01921,20.520875517578126,22.009610000000002,20.472575617578126Q22,20.424276217578125,22,20.375030517578125Q22,20.325784817578125,22.009610000000002,20.277485417578124Q22.01921,20.229185517578124,22.03806,20.183688517578126Q22.0569,20.138191517578125,22.08426,20.097245517578123Q22.111620000000002,20.056299517578125,22.14645,20.021477517578123Q22.181269999999998,19.986655517578125,22.22221,19.959295517578123Q22.26316,19.931936517578126,22.30866,19.913090517578127Q22.35415,19.894245517578124,22.40245,19.884637517578124Q22.45075,19.875030517578125,22.5,19.875030517578125Q22.549239999999998,19.875030517578125,22.597540000000002,19.884637517578124Q22.64584,19.894245517578124,22.69134,19.913090517578127Q22.73684,19.931936517578126,22.77778,19.959295517578123Q22.818730000000002,19.986655517578125,22.85355,20.021477517578123Q22.888370000000002,20.056299517578125,22.91573,20.097245517578123Q22.943089999999998,20.138191517578125,22.96194,20.183688517578126Q22.98078,20.229185517578124,22.990389999999998,20.277485417578124Q23,20.325784817578125,23,20.375030517578125ZM14,20.375030517578125Q14,20.424276217578125,13.990393,20.472575617578126Q13.980785000000001,20.520875517578126,13.96194,20.566372517578124Q13.943094,20.611869517578125,13.915735,20.652815517578127Q13.888375,20.693761517578125,13.853553,20.728583517578127Q13.818731,20.763405517578125,13.777785,20.790765517578127Q13.736839,20.818124517578124,13.691342,20.836970517578123Q13.645845,20.855815517578126,13.5975451,20.865423517578126Q13.5492457,20.875030517578125,13.5,20.875030517578125Q13.4507543,20.875030517578125,13.4024549,20.865423517578126Q13.354155,20.855815517578126,13.308658,20.836970517578123Q13.263161,20.818124517578124,13.222215,20.790765517578127Q13.181269,20.763405517578125,13.146447,20.728583517578127Q13.111625,20.693761517578125,13.084265,20.652815517578127Q13.056906,20.611869517578125,13.03806,20.566372517578124Q13.019214999999999,20.520875517578126,13.009607,20.472575617578126Q13,20.424276217578125,13,20.375030517578125Q13,20.325784817578125,13.009607,20.277485417578124Q13.019214999999999,20.229185517578124,13.03806,20.183688517578126Q13.056906,20.138191517578125,13.084265,20.097245517578123Q13.111625,20.056299517578125,13.146447,20.021477517578123Q13.181269,19.986655517578125,13.222215,19.959295517578123Q13.263161,19.931936517578126,13.308658,19.913090517578127Q13.354155,19.894245517578124,13.4024549,19.884637517578124Q13.4507543,19.875030517578125,13.5,19.875030517578125Q13.5492457,19.875030517578125,13.5975451,19.884637517578124Q13.645845,19.894245517578124,13.691342,19.913090517578127Q13.736839,19.931936517578126,13.777785,19.959295517578123Q13.818731,19.986655517578125,13.853553,20.021477517578123Q13.888375,20.056299517578125,13.915735,20.097245517578123Q13.943094,20.138191517578125,13.96194,20.183688517578126Q13.980785000000001,20.229185517578124,13.990393,20.277485417578124Q14,20.325784817578125,14,20.375030517578125Z" fill="#FFFFFF" fill-opacity="1"/></g><g><path d="M17.5,24.75L17.5,15.75Q17.5,15.7007543,17.509607,15.6524549Q17.519215,15.604155,17.53806,15.558658Q17.556906,15.513161,17.584265,15.472215Q17.611625,15.431269,17.646447,15.396447Q17.681269,15.361625,17.722215,15.334265Q17.763161,15.306906,17.808658,15.28806Q17.854155,15.269214999999999,17.9024549,15.259607Q17.9507543,15.25,18,15.25Q18.0492457,15.25,18.0975451,15.259607Q18.145845,15.269214999999999,18.191342,15.28806Q18.236839,15.306906,18.277785,15.334265Q18.318731,15.361625,18.353553,15.396447Q18.388375,15.431269,18.415735,15.472215Q18.443094,15.513161,18.46194,15.558658Q18.480785,15.604155,18.490393,15.6524549Q18.5,15.7007543,18.5,15.75L18.5,24.75Q18.5,24.799239999999998,18.490393,24.847540000000002Q18.480785,24.89584,18.46194,24.94134Q18.443094,24.98684,18.415735,25.02778Q18.388375,25.068730000000002,18.353553,25.10355Q18.318731,25.138370000000002,18.277785,25.16573Q18.236839,25.193089999999998,18.191342,25.21194Q18.145845,25.23078,18.0975451,25.240389999999998Q18.0492457,25.25,18,25.25Q17.9507543,25.25,17.9024549,25.240389999999998Q17.854155,25.23078,17.808658,25.21194Q17.763161,25.193089999999998,17.722215,25.16573Q17.681269,25.138370000000002,17.646447,25.10355Q17.611625,25.068730000000002,17.584265,25.02778Q17.556906,24.98684,17.53806,24.94134Q17.519215,24.89584,17.509607,24.847540000000002Q17.5,24.799239999999998,17.5,24.75ZM18.5,24.75Q18.5,24.799239999999998,18.490393,24.847540000000002Q18.480785,24.89584,18.46194,24.94134Q18.443094,24.98684,18.415735,25.02778Q18.388375,25.068730000000002,18.353553,25.10355Q18.318731,25.138370000000002,18.277785,25.16573Q18.236839,25.193089999999998,18.191342,25.21194Q18.145845,25.23078,18.0975451,25.240389999999998Q18.0492457,25.25,18,25.25Q17.9507543,25.25,17.9024549,25.240389999999998Q17.854155,25.23078,17.808658,25.21194Q17.763161,25.193089999999998,17.722215,25.16573Q17.681269,25.138370000000002,17.646447,25.10355Q17.611625,25.068730000000002,17.584265,25.02778Q17.556906,24.98684,17.53806,24.94134Q17.519215,24.89584,17.509607,24.847540000000002Q17.5,24.799239999999998,17.5,24.75Q17.5,24.70075,17.509607,24.65245Q17.519215,24.60415,17.53806,24.55866Q17.556906,24.51316,17.584265,24.47221Q17.611625,24.431269999999998,17.646447,24.39645Q17.681269,24.361620000000002,17.722215,24.33426Q17.763161,24.3069,17.808658,24.28806Q17.854155,24.26921,17.9024549,24.259610000000002Q17.9507543,24.25,18,24.25Q18.0492457,24.25,18.0975451,24.259610000000002Q18.145845,24.26921,18.191342,24.28806Q18.236839,24.3069,18.277785,24.33426Q18.318731,24.361620000000002,18.353553,24.39645Q18.388375,24.431269999999998,18.415735,24.47221Q18.443094,24.51316,18.46194,24.55866Q18.480785,24.60415,18.490393,24.65245Q18.5,24.70075,18.5,24.75ZM18.5,15.75Q18.5,15.7992457,18.490393,15.8475451Q18.480785,15.895845,18.46194,15.941342Q18.443094,15.986839,18.415735,16.027785Q18.388375,16.068731,18.353553,16.103553Q18.318731,16.138375,18.277785,16.165735Q18.236839,16.193094,18.191342,16.21194Q18.145845,16.230785,18.0975451,16.240393Q18.0492457,16.25,18,16.25Q17.9507543,16.25,17.9024549,16.240393Q17.854155,16.230785,17.808658,16.21194Q17.763161,16.193094,17.722215,16.165735Q17.681269,16.138375,17.646447,16.103553Q17.611625,16.068731,17.584265,16.027785Q17.556906,15.986839,17.53806,15.941342Q17.519215,15.895845,17.509607,15.8475451Q17.5,15.7992457,17.5,15.75Q17.5,15.7007543,17.509607,15.6524549Q17.519215,15.604155,17.53806,15.558658Q17.556906,15.513161,17.584265,15.472215Q17.611625,15.431269,17.646447,15.396447Q17.681269,15.361625,17.722215,15.334265Q17.763161,15.306906,17.808658,15.28806Q17.854155,15.269214999999999,17.9024549,15.259607Q17.9507543,15.25,18,15.25Q18.0492457,15.25,18.0975451,15.259607Q18.145845,15.269214999999999,18.191342,15.28806Q18.236839,15.306906,18.277785,15.334265Q18.318731,15.361625,18.353553,15.396447Q18.388375,15.431269,18.415735,15.472215Q18.443094,15.513161,18.46194,15.558658Q18.480785,15.604155,18.490393,15.6524549Q18.5,15.7007543,18.5,15.75Z" fill="#FFFFFF" fill-opacity="1"/></g></g></g></svg>