<svg xmlns="http://www.w3.org/2000/svg" xmlns:xlink="http://www.w3.org/1999/xlink" fill="none" version="1.1" width="36" height="36" viewBox="0 0 36 36"><defs><clipPath id="master_svg0_116_7749"><rect x="0" y="0" width="36" height="36" rx="0"/></clipPath></defs><g style="mix-blend-mode:passthrough" clip-path="url(#master_svg0_116_7749)"><g><g><path d="M3,11C3,10.17155,3.671573,9.5,4.5,9.5L31.5,9.5C32.3284,9.5,33,10.17155,33,11L33,30.5C33,31.3284,32.3284,32,31.5,32L4.5,32C3.671573,32,3,31.3284,3,30.5L3,11Z" fill="#3662EC" fill-opacity="1"/><path d="M2.5,30.5L2.5,11Q2.5,9,4.5,9L31.5,9Q33.5,9,33.5,11L33.5,30.5Q33.5,32.5,31.5,32.5L4.5,32.5Q2.5,32.5,2.5,30.5L2.5,30.5ZM3.5,30.5Q3.5,31.5,4.5,31.5L31.5,31.5Q32.5,31.5,32.5,30.5L32.5,11Q32.5,10,31.5,10L4.5,10Q3.5,10,3.5,11L3.5,30.5L3.5,30.5Z" fill="#333333" fill-opacity="1"/></g><g><path d="M22.10355,15.103553L18.35355,18.85355Q18.318730000000002,18.888370000000002,18.27778,18.91573Q18.23684,18.943089999999998,18.19134,18.96194Q18.14584,18.98078,18.09754,18.990389999999998Q18.04925,19,18,19Q17.95075,19,17.90245,18.990389999999998Q17.85415,18.98078,17.80866,18.96194Q17.76316,18.943089999999998,17.72221,18.91573Q17.68127,18.888370000000002,17.64645,18.85355L13.896447,15.103553Q13.861625,15.068731,13.834265,15.027785Q13.806906,14.986839,13.78806,14.941342Q13.769214999999999,14.895845,13.759607,14.8475451Q13.75,14.7992457,13.75,14.75Q13.75,14.7007543,13.759607,14.6524549Q13.769214999999999,14.604155,13.78806,14.558658Q13.806906,14.513161,13.834265,14.472215Q13.861625,14.431269,13.896447,14.396447Q13.931269,14.361625,13.972215,14.334265Q14.013161,14.306906,14.058658,14.28806Q14.104155,14.269214999999999,14.1524549,14.259607Q14.2007543,14.25,14.25,14.25Q14.2992457,14.25,14.3475451,14.259607Q14.395845,14.269214999999999,14.441342,14.28806Q14.486839,14.306906,14.527785,14.334265Q14.568731,14.361625,14.603553,14.396447L18.35355,18.14645L18,18.5L17.64645,18.14645L21.39645,14.396447Q21.431269999999998,14.361625,21.47221,14.334265Q21.51316,14.306906,21.55866,14.28806Q21.60415,14.269214999999999,21.65245,14.259607Q21.70075,14.25,21.75,14.25Q21.79925,14.25,21.847540000000002,14.259607Q21.89584,14.269214999999999,21.94134,14.28806Q21.98684,14.306906,22.02778,14.334265Q22.068730000000002,14.361625,22.10355,14.396447Q22.138370000000002,14.431269,22.16573,14.472215Q22.193089999999998,14.513161,22.21194,14.558658Q22.23078,14.604155,22.240389999999998,14.6524549Q22.25,14.7007543,22.25,14.75Q22.25,14.7992457,22.240389999999998,14.8475451Q22.23078,14.895845,22.21194,14.941342Q22.193089999999998,14.986839,22.16573,15.027785Q22.138370000000002,15.068731,22.10355,15.103553ZM22.25,14.75Q22.25,14.7992457,22.240389999999998,14.8475451Q22.23078,14.895845,22.21194,14.941342Q22.193089999999998,14.986839,22.16573,15.027785Q22.138370000000002,15.068731,22.10355,15.103553Q22.068730000000002,15.138375,22.02778,15.165735Q21.98684,15.193094,21.94134,15.21194Q21.89584,15.230785000000001,21.847540000000002,15.240393Q21.79925,15.25,21.75,15.25Q21.70075,15.25,21.65245,15.240393Q21.60415,15.230785000000001,21.55866,15.21194Q21.51316,15.193094,21.47221,15.165735Q21.431269999999998,15.138375,21.39645,15.103553Q21.361620000000002,15.068731,21.33426,15.027785Q21.3069,14.986839,21.28806,14.941342Q21.26921,14.895845,21.259610000000002,14.8475451Q21.25,14.7992457,21.25,14.75Q21.25,14.7007543,21.259610000000002,14.6524549Q21.26921,14.604155,21.28806,14.558658Q21.3069,14.513161,21.33426,14.472215Q21.361620000000002,14.431269,21.39645,14.396447Q21.431269999999998,14.361625,21.47221,14.334265Q21.51316,14.306906,21.55866,14.28806Q21.60415,14.269214999999999,21.65245,14.259607Q21.70075,14.25,21.75,14.25Q21.79925,14.25,21.847540000000002,14.259607Q21.89584,14.269214999999999,21.94134,14.28806Q21.98684,14.306906,22.02778,14.334265Q22.068730000000002,14.361625,22.10355,14.396447Q22.138370000000002,14.431269,22.16573,14.472215Q22.193089999999998,14.513161,22.21194,14.558658Q22.23078,14.604155,22.240389999999998,14.6524549Q22.25,14.7007543,22.25,14.75ZM14.75,14.75Q14.75,14.7992457,14.740393,14.8475451Q14.730785000000001,14.895845,14.71194,14.941342Q14.693094,14.986839,14.665735,15.027785Q14.638375,15.068731,14.603553,15.103553Q14.568731,15.138375,14.527785,15.165735Q14.486839,15.193094,14.441342,15.21194Q14.395845,15.230785000000001,14.3475451,15.240393Q14.2992457,15.25,14.25,15.25Q14.2007543,15.25,14.1524549,15.240393Q14.104155,15.230785000000001,14.058658,15.21194Q14.013161,15.193094,13.972215,15.165735Q13.931269,15.138375,13.896447,15.103553Q13.861625,15.068731,13.834265,15.027785Q13.806906,14.986839,13.78806,14.941342Q13.769214999999999,14.895845,13.759607,14.8475451Q13.75,14.7992457,13.75,14.75Q13.75,14.7007543,13.759607,14.6524549Q13.769214999999999,14.604155,13.78806,14.558658Q13.806906,14.513161,13.834265,14.472215Q13.861625,14.431269,13.896447,14.396447Q13.931269,14.361625,13.972215,14.334265Q14.013161,14.306906,14.058658,14.28806Q14.104155,14.269214999999999,14.1524549,14.259607Q14.2007543,14.25,14.25,14.25Q14.2992457,14.25,14.3475451,14.259607Q14.395845,14.269214999999999,14.441342,14.28806Q14.486839,14.306906,14.527785,14.334265Q14.568731,14.361625,14.603553,14.396447Q14.638375,14.431269,14.665735,14.472215Q14.693094,14.513161,14.71194,14.558658Q14.730785000000001,14.604155,14.740393,14.6524549Q14.75,14.7007543,14.75,14.75Z" fill="#FFFFFF" fill-opacity="1"/></g><g><path d="M22.5,19.75L13.5,19.75Q13.4507543,19.75,13.4024549,19.740393Q13.354155,19.730785,13.308658,19.71194Q13.263161,19.693094,13.222215,19.665735Q13.181269,19.638375,13.146447,19.603553Q13.111625,19.568731,13.084265,19.527785Q13.056906,19.486839,13.03806,19.441342Q13.019214999999999,19.395845,13.009607,19.3475451Q13,19.2992457,13,19.25Q13,19.2007543,13.009607,19.1524549Q13.019214999999999,19.104155,13.03806,19.058658Q13.056906,19.013161,13.084265,18.972215Q13.111625,18.931269,13.146447,18.896447Q13.181269,18.861625,13.222215,18.834265Q13.263161,18.806906,13.308658,18.78806Q13.354155,18.769215,13.4024549,18.759607Q13.4507543,18.75,13.5,18.75L22.5,18.75Q22.549239999999998,18.75,22.597540000000002,18.759607Q22.64584,18.769215,22.69134,18.78806Q22.73684,18.806906,22.77778,18.834265Q22.818730000000002,18.861625,22.85355,18.896447Q22.888370000000002,18.931269,22.91573,18.972215Q22.943089999999998,19.013161,22.96194,19.058658Q22.98078,19.104155,22.990389999999998,19.1524549Q23,19.2007543,23,19.25Q23,19.2992457,22.990389999999998,19.3475451Q22.98078,19.395845,22.96194,19.441342Q22.943089999999998,19.486839,22.91573,19.527785Q22.888370000000002,19.568731,22.85355,19.603553Q22.818730000000002,19.638375,22.77778,19.665735Q22.73684,19.693094,22.69134,19.71194Q22.64584,19.730785,22.597540000000002,19.740393Q22.549239999999998,19.75,22.5,19.75ZM23,19.25Q23,19.2992457,22.990389999999998,19.3475451Q22.98078,19.395845,22.96194,19.441342Q22.943089999999998,19.486839,22.91573,19.527785Q22.888370000000002,19.568731,22.85355,19.603553Q22.818730000000002,19.638375,22.77778,19.665735Q22.73684,19.693094,22.69134,19.71194Q22.64584,19.730785,22.597540000000002,19.740393Q22.549239999999998,19.75,22.5,19.75Q22.45075,19.75,22.40245,19.740393Q22.35415,19.730785,22.30866,19.71194Q22.26316,19.693094,22.22221,19.665735Q22.181269999999998,19.638375,22.14645,19.603553Q22.111620000000002,19.568731,22.08426,19.527785Q22.0569,19.486839,22.03806,19.441342Q22.01921,19.395845,22.009610000000002,19.3475451Q22,19.2992457,22,19.25Q22,19.2007543,22.009610000000002,19.1524549Q22.01921,19.104155,22.03806,19.058658Q22.0569,19.013161,22.08426,18.972215Q22.111620000000002,18.931269,22.14645,18.896447Q22.181269999999998,18.861625,22.22221,18.834265Q22.26316,18.806906,22.30866,18.78806Q22.35415,18.769215,22.40245,18.759607Q22.45075,18.75,22.5,18.75Q22.549239999999998,18.75,22.597540000000002,18.759607Q22.64584,18.769215,22.69134,18.78806Q22.73684,18.806906,22.77778,18.834265Q22.818730000000002,18.861625,22.85355,18.896447Q22.888370000000002,18.931269,22.91573,18.972215Q22.943089999999998,19.013161,22.96194,19.058658Q22.98078,19.104155,22.990389999999998,19.1524549Q23,19.2007543,23,19.25ZM14,19.25Q14,19.2992457,13.990393,19.3475451Q13.980785000000001,19.395845,13.96194,19.441342Q13.943094,19.486839,13.915735,19.527785Q13.888375,19.568731,13.853553,19.603553Q13.818731,19.638375,13.777785,19.665735Q13.736839,19.693094,13.691342,19.71194Q13.645845,19.730785,13.5975451,19.740393Q13.5492457,19.75,13.5,19.75Q13.4507543,19.75,13.4024549,19.740393Q13.354155,19.730785,13.308658,19.71194Q13.263161,19.693094,13.222215,19.665735Q13.181269,19.638375,13.146447,19.603553Q13.111625,19.568731,13.084265,19.527785Q13.056906,19.486839,13.03806,19.441342Q13.019214999999999,19.395845,13.009607,19.3475451Q13,19.2992457,13,19.25Q13,19.2007543,13.009607,19.1524549Q13.019214999999999,19.104155,13.03806,19.058658Q13.056906,19.013161,13.084265,18.972215Q13.111625,18.931269,13.146447,18.896447Q13.181269,18.861625,13.222215,18.834265Q13.263161,18.806906,13.308658,18.78806Q13.354155,18.769215,13.4024549,18.759607Q13.4507543,18.75,13.5,18.75Q13.5492457,18.75,13.5975451,18.759607Q13.645845,18.769215,13.691342,18.78806Q13.736839,18.806906,13.777785,18.834265Q13.818731,18.861625,13.853553,18.896447Q13.888375,18.931269,13.915735,18.972215Q13.943094,19.013161,13.96194,19.058658Q13.980785000000001,19.104155,13.990393,19.1524549Q14,19.2007543,14,19.25Z" fill="#FFFFFF" fill-opacity="1"/></g><g><path d="M22.5,24.25L13.5,24.25Q13.4507543,24.25,13.4024549,24.240393Q13.354155,24.230785,13.308658,24.21194Q13.263161,24.193094,13.222215,24.165735Q13.181269,24.138375,13.146447,24.103553Q13.111625,24.068731,13.084265,24.027785Q13.056906,23.986839,13.03806,23.941342Q13.019214999999999,23.895845,13.009607,23.8475451Q13,23.7992457,13,23.75Q13,23.7007543,13.009607,23.6524549Q13.019214999999999,23.604155,13.03806,23.558658Q13.056906,23.513161,13.084265,23.472215Q13.111625,23.431269,13.146447,23.396447Q13.181269,23.361625,13.222215,23.334265Q13.263161,23.306906,13.308658,23.28806Q13.354155,23.269215,13.4024549,23.259607Q13.4507543,23.25,13.5,23.25L22.5,23.25Q22.549239999999998,23.25,22.597540000000002,23.259607Q22.64584,23.269215,22.69134,23.28806Q22.73684,23.306906,22.77778,23.334265Q22.818730000000002,23.361625,22.85355,23.396447Q22.888370000000002,23.431269,22.91573,23.472215Q22.943089999999998,23.513161,22.96194,23.558658Q22.98078,23.604155,22.990389999999998,23.6524549Q23,23.7007543,23,23.75Q23,23.7992457,22.990389999999998,23.8475451Q22.98078,23.895845,22.96194,23.941342Q22.943089999999998,23.986839,22.91573,24.027785Q22.888370000000002,24.068731,22.85355,24.103553Q22.818730000000002,24.138375,22.77778,24.165735Q22.73684,24.193094,22.69134,24.21194Q22.64584,24.230785,22.597540000000002,24.240393Q22.549239999999998,24.25,22.5,24.25ZM23,23.75Q23,23.7992457,22.990389999999998,23.8475451Q22.98078,23.895845,22.96194,23.941342Q22.943089999999998,23.986839,22.91573,24.027785Q22.888370000000002,24.068731,22.85355,24.103553Q22.818730000000002,24.138375,22.77778,24.165735Q22.73684,24.193094,22.69134,24.21194Q22.64584,24.230785,22.597540000000002,24.240393Q22.549239999999998,24.25,22.5,24.25Q22.45075,24.25,22.40245,24.240393Q22.35415,24.230785,22.30866,24.21194Q22.26316,24.193094,22.22221,24.165735Q22.181269999999998,24.138375,22.14645,24.103553Q22.111620000000002,24.068731,22.08426,24.027785Q22.0569,23.986839,22.03806,23.941342Q22.01921,23.895845,22.009610000000002,23.8475451Q22,23.7992457,22,23.75Q22,23.7007543,22.009610000000002,23.6524549Q22.01921,23.604155,22.03806,23.558658Q22.0569,23.513161,22.08426,23.472215Q22.111620000000002,23.431269,22.14645,23.396447Q22.181269999999998,23.361625,22.22221,23.334265Q22.26316,23.306906,22.30866,23.28806Q22.35415,23.269215,22.40245,23.259607Q22.45075,23.25,22.5,23.25Q22.549239999999998,23.25,22.597540000000002,23.259607Q22.64584,23.269215,22.69134,23.28806Q22.73684,23.306906,22.77778,23.334265Q22.818730000000002,23.361625,22.85355,23.396447Q22.888370000000002,23.431269,22.91573,23.472215Q22.943089999999998,23.513161,22.96194,23.558658Q22.98078,23.604155,22.990389999999998,23.6524549Q23,23.7007543,23,23.75ZM14,23.75Q14,23.7992457,13.990393,23.8475451Q13.980785000000001,23.895845,13.96194,23.941342Q13.943094,23.986839,13.915735,24.027785Q13.888375,24.068731,13.853553,24.103553Q13.818731,24.138375,13.777785,24.165735Q13.736839,24.193094,13.691342,24.21194Q13.645845,24.230785,13.5975451,24.240393Q13.5492457,24.25,13.5,24.25Q13.4507543,24.25,13.4024549,24.240393Q13.354155,24.230785,13.308658,24.21194Q13.263161,24.193094,13.222215,24.165735Q13.181269,24.138375,13.146447,24.103553Q13.111625,24.068731,13.084265,24.027785Q13.056906,23.986839,13.03806,23.941342Q13.019214999999999,23.895845,13.009607,23.8475451Q13,23.7992457,13,23.75Q13,23.7007543,13.009607,23.6524549Q13.019214999999999,23.604155,13.03806,23.558658Q13.056906,23.513161,13.084265,23.472215Q13.111625,23.431269,13.146447,23.396447Q13.181269,23.361625,13.222215,23.334265Q13.263161,23.306906,13.308658,23.28806Q13.354155,23.269215,13.4024549,23.259607Q13.4507543,23.25,13.5,23.25Q13.5492457,23.25,13.5975451,23.259607Q13.645845,23.269215,13.691342,23.28806Q13.736839,23.306906,13.777785,23.334265Q13.818731,23.361625,13.853553,23.396447Q13.888375,23.431269,13.915735,23.472215Q13.943094,23.513161,13.96194,23.558658Q13.980785000000001,23.604155,13.990393,23.6524549Q14,23.7007543,14,23.75Z" fill="#FFFFFF" fill-opacity="1"/></g><g><path d="M17.5,26.75L17.5,19.25Q17.5,19.2007543,17.509607,19.1524549Q17.519215,19.104155,17.53806,19.058658Q17.556906,19.013161,17.584265,18.972215Q17.611625,18.931269,17.646447,18.896447Q17.681269,18.861625,17.722215,18.834265Q17.763161,18.806906,17.808658,18.78806Q17.854155,18.769215,17.9024549,18.759607Q17.9507543,18.75,18,18.75Q18.0492457,18.75,18.0975451,18.759607Q18.145845,18.769215,18.191342,18.78806Q18.236839,18.806906,18.277785,18.834265Q18.318731,18.861625,18.353553,18.896447Q18.388375,18.931269,18.415735,18.972215Q18.443094,19.013161,18.46194,19.058658Q18.480785,19.104155,18.490393,19.1524549Q18.5,19.2007543,18.5,19.25L18.5,26.75Q18.5,26.79925,18.490393,26.847540000000002Q18.480785,26.89584,18.46194,26.94134Q18.443094,26.98684,18.415735,27.02778Q18.388375,27.068730000000002,18.353553,27.10355Q18.318731,27.138370000000002,18.277785,27.16573Q18.236839,27.193089999999998,18.191342,27.21194Q18.145845,27.23078,18.0975451,27.240389999999998Q18.0492457,27.25,18,27.25Q17.9507543,27.25,17.9024549,27.240389999999998Q17.854155,27.23078,17.808658,27.21194Q17.763161,27.193089999999998,17.722215,27.16573Q17.681269,27.138370000000002,17.646447,27.10355Q17.611625,27.068730000000002,17.584265,27.02778Q17.556906,26.98684,17.53806,26.94134Q17.519215,26.89584,17.509607,26.847540000000002Q17.5,26.79925,17.5,26.75ZM18.5,26.75Q18.5,26.79925,18.490393,26.847540000000002Q18.480785,26.89584,18.46194,26.94134Q18.443094,26.98684,18.415735,27.02778Q18.388375,27.068730000000002,18.353553,27.10355Q18.318731,27.138370000000002,18.277785,27.16573Q18.236839,27.193089999999998,18.191342,27.21194Q18.145845,27.23078,18.0975451,27.240389999999998Q18.0492457,27.25,18,27.25Q17.9507543,27.25,17.9024549,27.240389999999998Q17.854155,27.23078,17.808658,27.21194Q17.763161,27.193089999999998,17.722215,27.16573Q17.681269,27.138370000000002,17.646447,27.10355Q17.611625,27.068730000000002,17.584265,27.02778Q17.556906,26.98684,17.53806,26.94134Q17.519215,26.89584,17.509607,26.847540000000002Q17.5,26.79925,17.5,26.75Q17.5,26.70075,17.509607,26.65245Q17.519215,26.60415,17.53806,26.55866Q17.556906,26.51316,17.584265,26.47221Q17.611625,26.431269999999998,17.646447,26.39645Q17.681269,26.361620000000002,17.722215,26.33426Q17.763161,26.3069,17.808658,26.28806Q17.854155,26.26921,17.9024549,26.259610000000002Q17.9507543,26.25,18,26.25Q18.0492457,26.25,18.0975451,26.259610000000002Q18.145845,26.26921,18.191342,26.28806Q18.236839,26.306910000000002,18.277785,26.33426Q18.318731,26.361620000000002,18.353553,26.39645Q18.388375,26.431269999999998,18.415735,26.47221Q18.443094,26.51316,18.46194,26.55866Q18.480785,26.60415,18.490393,26.65245Q18.5,26.70075,18.5,26.75ZM18.5,19.25Q18.5,19.2992457,18.490393,19.3475451Q18.480785,19.395845,18.46194,19.441342Q18.443094,19.486839,18.415735,19.527785Q18.388375,19.568731,18.353553,19.603553Q18.318731,19.638375,18.277785,19.665735Q18.236839,19.693094,18.191342,19.71194Q18.145845,19.730785,18.0975451,19.740393Q18.0492457,19.75,18,19.75Q17.9507543,19.75,17.9024549,19.740393Q17.854155,19.730785,17.808658,19.71194Q17.763161,19.693094,17.722215,19.665735Q17.681269,19.638375,17.646447,19.603553Q17.611625,19.568731,17.584265,19.527785Q17.556906,19.486839,17.53806,19.441342Q17.519215,19.395845,17.509607,19.3475451Q17.5,19.2992457,17.5,19.25Q17.5,19.2007543,17.509607,19.1524549Q17.519215,19.104155,17.53806,19.058658Q17.556906,19.013161,17.584265,18.972215Q17.611625,18.931269,17.646447,18.896447Q17.681269,18.861625,17.722215,18.834265Q17.763161,18.806906,17.808658,18.78806Q17.854155,18.769215,17.9024549,18.759607Q17.9507543,18.75,18,18.75Q18.0492457,18.75,18.0975451,18.759607Q18.145845,18.769215,18.191342,18.78806Q18.236839,18.806906,18.277785,18.834265Q18.318731,18.861625,18.353553,18.896447Q18.388375,18.931269,18.415735,18.972215Q18.443094,19.013161,18.46194,19.058658Q18.480785,19.104155,18.490393,19.1524549Q18.5,19.2007543,18.5,19.25Z" fill="#FFFFFF" fill-opacity="1"/></g><g><path d="M30,5.5L6,5.5Q5.9507543,5.5,5.9024549,5.490393Q5.854155,5.480785,5.808658,5.46194Q5.763161,5.443094,5.722215,5.415735Q5.681269,5.388375,5.646447,5.353553Q5.611625,5.318731,5.584265,5.277785Q5.556906,5.236839,5.53806,5.191342Q5.519215,5.145845,5.509607,5.0975451Q5.5,5.0492457,5.5,5Q5.5,4.9507543,5.509607,4.9024549Q5.519215,4.854155,5.53806,4.808658Q5.556906,4.763161,5.584265,4.722215Q5.611625,4.681269,5.646447,4.646447Q5.681269,4.611625,5.722215,4.584265Q5.763161,4.556906,5.808658,4.53806Q5.854155,4.519215,5.9024549,4.509607Q5.9507543,4.5,6,4.5L30,4.5Q30.0492,4.5,30.0975,4.509607Q30.1458,4.519215,30.1913,4.53806Q30.2368,4.556906,30.2778,4.584265Q30.3187,4.611625,30.3536,4.646447Q30.3884,4.681269,30.4157,4.722215Q30.4431,4.763161,30.4619,4.808658Q30.4808,4.854155,30.4904,4.9024549Q30.5,4.9507543,30.5,5Q30.5,5.0492457,30.4904,5.0975451Q30.4808,5.145845,30.4619,5.191342Q30.4431,5.236839,30.4157,5.277785Q30.3884,5.318731,30.3536,5.353553Q30.3187,5.388375,30.2778,5.415735Q30.2368,5.443094,30.1913,5.46194Q30.1458,5.480785,30.0975,5.490393Q30.0492,5.5,30,5.5ZM30.5,5Q30.5,5.0492457,30.4904,5.0975451Q30.4808,5.145845,30.4619,5.191342Q30.4431,5.236839,30.4157,5.277785Q30.3884,5.318731,30.3536,5.353553Q30.3187,5.388375,30.2778,5.415735Q30.2368,5.443094,30.1913,5.46194Q30.1458,5.480785,30.0975,5.490393Q30.0492,5.5,30,5.5Q29.9508,5.5,29.9025,5.490393Q29.8542,5.480785,29.8087,5.46194Q29.7632,5.443094,29.7222,5.415735Q29.6813,5.388375,29.6464,5.353553Q29.6116,5.318731,29.5843,5.277785Q29.5569,5.236839,29.5381,5.191342Q29.5192,5.145845,29.5096,5.0975451Q29.5,5.0492457,29.5,5Q29.5,4.9507543,29.5096,4.9024549Q29.5192,4.854155,29.5381,4.808658Q29.5569,4.763161,29.5843,4.722215Q29.6116,4.681269,29.6464,4.646447Q29.6813,4.611625,29.7222,4.584265Q29.7632,4.556906,29.8087,4.53806Q29.8542,4.519215,29.9025,4.509607Q29.9508,4.5,30,4.5Q30.0492,4.5,30.0975,4.509607Q30.1458,4.519215,30.1913,4.53806Q30.2368,4.556906,30.2778,4.584265Q30.3187,4.611625,30.3536,4.646447Q30.3884,4.681269,30.4157,4.722215Q30.4431,4.763161,30.4619,4.808658Q30.4808,4.854155,30.4904,4.9024549Q30.5,4.9507543,30.5,5ZM6.5,5Q6.5,5.0492457,6.490393,5.0975451Q6.480785,5.145845,6.46194,5.191342Q6.443094,5.236839,6.415735,5.277785Q6.388375,5.318731,6.353553,5.353553Q6.318731,5.388375,6.277785,5.415735Q6.236839,5.443094,6.191342,5.46194Q6.145845,5.480785,6.0975451,5.490393Q6.0492457,5.5,6,5.5Q5.9507543,5.5,5.9024549,5.490393Q5.854155,5.480785,5.808658,5.46194Q5.763161,5.443094,5.722215,5.415735Q5.681269,5.388375,5.646447,5.353553Q5.611625,5.318731,5.584265,5.277785Q5.556906,5.236839,5.53806,5.191342Q5.519215,5.145845,5.509607,5.0975451Q5.5,5.0492457,5.5,5Q5.5,4.9507543,5.509607,4.9024549Q5.519215,4.854155,5.53806,4.808658Q5.556906,4.763161,5.584265,4.722215Q5.611625,4.681269,5.646447,4.646447Q5.681269,4.611625,5.722215,4.584265Q5.763161,4.556906,5.808658,4.53806Q5.854155,4.519215,5.9024549,4.509607Q5.9507543,4.5,6,4.5Q6.0492457,4.5,6.0975451,4.509607Q6.145845,4.519215,6.191342,4.53806Q6.236839,4.556906,6.277785,4.584265Q6.318731,4.611625,6.353553,4.646447Q6.388375,4.681269,6.415735,4.722215Q6.443094,4.763161,6.46194,4.808658Q6.480785,4.854155,6.490393,4.9024549Q6.5,4.9507543,6.5,5Z" fill="#333333" fill-opacity="1"/></g></g></g></svg>